<svg width="544" height="717" viewBox="0 0 544 717" fill="none" xmlns="http://www.w3.org/2000/svg">
<path d="M319.845 0C308.753 0 298.701 2.42308 291.075 6.92308C285.183 10.7308 276.864 19.0385 273.051 25.2692C268.545 32.5385 266.118 42.5769 266.118 53.6538C266.118 64.7308 268.545 74.7692 273.051 82.3846C276.864 88.2692 284.143 96.2308 289.689 99.3462C294.888 102.808 303.553 106.269 309.446 107.308C315.339 108.692 326.084 108 333.71 106.615C341.682 104.885 352.427 98.6538 359.013 92.4231C365.252 86.1923 371.838 75.4615 373.571 68.1923C375.651 61.2692 375.997 49.5 374.611 42.2308C373.224 35.3077 369.412 25.6154 365.945 21.1154C362.479 16.6154 354.853 10.0385 348.614 6.57692C341.682 2.42308 330.59 0 319.845 0Z" fill="white" fill-opacity="0.2"/>
<path fill-rule="evenodd" clip-rule="evenodd" d="M399.568 100.385C393.675 100.385 385.356 102.462 380.503 104.885C375.651 107.308 331.283 140.885 281.716 179.654C232.15 218.077 188.822 253.731 185.702 258.923C182.236 264.115 179.463 272.769 179.463 278.654C179.463 284.538 181.89 292.5 184.662 296.654C187.435 301.154 194.368 307.038 200.26 309.808C206.5 312.923 215.165 314.308 222.098 312.923C228.683 311.885 235.962 312.923 239.775 315.692C246.014 319.846 244.975 322.962 220.711 376.615C197.834 426.808 194.368 433.038 188.129 430.962C184.316 429.923 171.144 427.846 158.666 426.808C145.494 425.769 128.163 426.462 117.071 429.231C106.673 431.654 88.995 438.577 77.5565 444.462C66.4647 450.346 49.8268 463.5 40.4681 473.192C31.1093 483.231 19.6708 499.846 14.8181 509.538C9.96539 519.577 4.41949 537.923 2.33978 550.385C-0.779785 567.346 -0.779785 578.423 2.33978 595.385C4.41949 607.846 9.96539 626.192 14.8181 635.885C19.6708 645.923 31.1093 662.538 40.4681 672.231C49.8268 682.269 65.7714 695.077 75.8234 700.615C86.222 706.154 102.513 712.731 111.872 715.5C121.577 717.923 136.482 720 145.841 720C154.853 720 170.451 718.269 180.503 716.192C190.208 714.115 205.806 708.577 215.165 704.077C224.177 699.577 238.042 689.885 245.668 682.615C253.64 675.692 264.385 663.577 269.585 655.961C274.784 648.346 282.41 632.423 286.569 620.308C291.422 606.462 293.848 590.192 293.848 573.577C293.848 560.077 291.422 540 288.302 529.615C285.183 519.231 277.557 502.615 271.318 493.269C265.425 483.577 254.333 470.423 246.708 463.846C239.429 456.923 230.07 449.654 226.257 447.577C219.671 443.769 219.671 443.077 233.189 414C240.815 397.385 247.401 384.231 248.094 384.231C248.441 384.231 266.465 411.231 287.956 443.769C309.446 476.654 330.937 509.885 335.443 517.5C342.375 528.923 344.108 535.846 344.108 558C344.108 579.115 345.495 586.385 351.387 594.346C355.2 599.538 364.212 606.808 371.145 609.923C381.543 615.115 386.743 615.462 397.834 612.692C407.193 610.269 414.819 605.077 421.405 597.115C429.377 586.731 432.497 585 442.895 585.692C454.334 586.731 455.027 587.423 460.226 607.5C463.346 618.923 470.278 635.885 475.824 645.577C481.37 654.923 491.076 668.423 496.968 675C503.207 681.577 516.379 691.962 526.778 698.192C536.83 704.423 554.507 711.692 565.946 714.808C577.384 717.577 594.715 720 604.074 720C613.779 720 628.338 718.269 637.003 716.192C645.669 714.115 660.92 708.231 671.319 703.385C681.371 698.192 698.008 686.077 707.714 676.385C717.419 666.346 729.898 649.385 735.443 638.308C740.989 626.885 747.229 607.846 748.962 595.385C751.735 578.769 751.735 566.654 748.615 549.346C746.189 536.538 740.296 517.846 735.097 507.808C730.244 498.115 717.766 481.154 708.06 470.769C695.929 458.308 681.717 447.923 666.119 440.308C648.442 432 635.27 428.538 616.206 427.154C597.835 425.423 583.97 426.462 569.412 430.269C564.212 431.685 558.869 433.102 554.262 434.323L554.248 434.327L554.241 434.328C548.723 435.791 544.264 436.973 542.375 437.538C537.869 439.269 533.71 435.115 525.044 421.269C518.805 411.577 510.486 398.077 500.088 380.769L508.753 364.846C514.299 354.808 521.925 346.846 529.551 342.692C537.176 339.231 544.109 331.615 548.268 323.308C552.428 314.654 554.161 305.308 553.121 297.692C552.081 289.038 533.71 259.615 491.422 198.346C448.095 135.346 428.684 109.731 420.711 105.923C414.819 102.808 405.46 100.385 399.568 100.385ZM259.533 292.5C350.694 221.538 377.384 200.769 377.731 200.769H378.077C378.424 201.115 392.982 221.538 409.966 246.808C426.248 270.222 439.776 290.58 441.93 293.821C442.069 294.03 442.16 294.168 442.202 294.231C442.549 295.269 416.206 308.077 383.277 322.615L323.311 348.923C283.103 343.731 270.971 341.654 270.278 341.308C269.585 341.308 271.664 334.731 274.784 327.115C275.267 325.789 275.739 324.494 276.19 323.258C278.329 317.398 279.983 312.863 279.983 312.577C279.983 311.885 275.477 307.385 269.585 302.192L259.533 292.5ZM282.063 383.192C276.171 374.192 276.517 373.846 284.143 374.538C287.798 374.538 294.931 375.34 300.841 376.004C301.657 376.096 302.45 376.185 303.207 376.269C309.1 376.615 314.299 377.654 314.299 378C314.299 378.415 315.169 383.422 316.462 390.866C317.329 395.853 318.386 401.935 319.498 408.462C322.271 424.731 324.698 440.308 324.698 443.077C324.698 445.846 316.379 435.808 306.327 420.577C295.928 405.346 285.183 388.731 282.063 383.192ZM408.58 395.654C414.819 393.231 426.258 391.5 433.883 391.5C441.509 391.846 450.868 392.538 454.68 393.577C458.493 394.269 461.266 395.308 460.92 395.654C460.573 396 449.134 417.462 435.616 443.077C422.445 468.692 411.353 489.115 411.353 488.077C411.353 487.038 408.233 469.385 404.42 448.269C400.608 427.154 397.488 407.769 397.488 405C397.488 402.231 402.341 397.731 408.58 395.654ZM453.987 475.615L486.916 412.615L511.873 453.462C487.263 479.077 475.478 495.692 469.932 507.115C464.039 518.538 458.493 534.462 457.107 542.769C454.68 556.615 453.987 557.308 442.549 557.654C432.497 557.654 429.724 555.923 425.911 547.962C421.405 538.615 423.138 535.154 453.987 475.615ZM553.814 465.577C571.145 458.308 585.357 455.538 596.795 454.846C608.234 454.154 624.525 455.538 633.19 457.962C641.856 460.385 655.721 466.269 664.386 471.115C673.052 476.308 685.184 486.346 691.769 493.615C698.355 501.231 707.714 515.769 712.567 526.154C719.846 541.385 721.232 550.385 721.232 572.885C721.232 595.038 719.846 604.385 712.567 619.615C707.714 630 697.662 645.577 689.69 654.231C681.024 664.269 667.506 673.615 653.641 679.846C641.509 685.385 622.792 690.577 612.393 691.615C598.875 692.654 586.05 691.269 568.372 685.731C547.575 679.846 539.603 675 523.658 660.115C512.566 650.077 500.781 634.5 496.275 624.808C491.769 615.115 487.263 603.346 486.223 597.808L484.143 588.462C565.946 588.462 567.679 588.808 574.265 597.115C578.078 601.961 586.397 607.154 592.636 608.538C598.528 610.269 608.58 610.269 614.126 608.885C620.019 607.154 627.991 601.961 632.497 597.115C638.043 590.885 640.123 584.308 640.123 572.885C640.123 560.423 638.043 555.231 630.071 546.923C624.525 541.038 616.553 536.538 612.74 536.538C608.58 536.538 603.728 536.192 601.648 535.5C599.221 535.154 587.783 519.231 575.651 500.192L553.814 465.577ZM94.1945 466.962C109.446 459.346 121.578 456.231 139.255 455.192C152.773 454.5 167.678 454.846 172.878 456.231L181.89 458.654C150 528.577 144.801 536.885 139.255 536.885C135.442 536.885 128.857 539.308 125.044 542.769C120.884 545.885 115.685 552.115 113.605 556.269C111.526 560.769 109.792 568.039 109.792 572.885C109.792 577.731 111.526 585 113.605 589.154C115.685 593.654 120.884 599.885 125.044 603C129.203 606.462 138.215 609.231 147.227 609.231C157.626 609.231 164.559 606.808 172.184 600.577C178.077 595.731 183.623 587.077 184.663 580.5C186.049 573.231 185.009 565.615 181.196 558C175.748 547.119 175.987 546.592 191.439 512.452L192.288 510.577C201.3 490.5 210.313 474.231 212.392 474.231C214.819 474.231 223.138 480.808 231.11 488.769C239.082 497.077 249.827 511.269 255.027 520.962C262.999 536.192 264.039 542.077 264.039 572.885C264.039 604.038 262.999 609.231 254.68 625.5C249.134 635.538 238.389 650.423 230.417 658.385C222.098 666.346 206.846 676.731 196.448 681.577C180.85 688.846 172.184 690.577 147.921 690.577C122.964 690.577 115.338 688.846 97.6607 680.885C84.4891 674.654 70.6243 664.615 60.2256 653.192C50.5202 642.461 40.4681 627.231 36.3087 616.154C31.8026 603.692 29.3763 588.808 29.3763 572.885C29.3763 556.615 31.8026 542.423 36.3087 529.615C40.4681 519.231 50.1736 502.962 58.4926 493.615C67.5046 483.577 81.7161 472.846 94.1945 466.962ZM512.913 495.346L527.471 480.462L549.655 514.731C562.133 533.769 571.838 551.077 571.492 553.5C571.145 555.923 557.28 557.308 527.471 557.308H484.143C487.278 543.844 490.414 534.063 492.779 526.682C493.029 525.903 493.27 525.15 493.502 524.423C496.275 516.808 504.941 503.654 512.913 495.346Z" fill="white" fill-opacity="0.2"/>
</svg>
