<svg width="145" height="30" viewBox="0 0 145 30" fill="none" xmlns="http://www.w3.org/2000/svg">
<path fill-rule="evenodd" clip-rule="evenodd" d="M12.7853 0.143716C12.45 0.255457 11.4009 0.936727 9.60081 2.21186C8.12422 3.25767 5.57278 5.06237 3.9308 6.22224C2.28882 7.38212 0.796012 8.46124 0.613504 8.62025C0.169273 9.00709 0 9.33103 0 9.79399C0 10.5434 0.232465 10.7653 3.25769 12.9043C4.80433 13.9978 6.08936 14.922 6.11334 14.958C6.13722 14.9939 4.90246 15.9106 3.36934 16.995C1.71433 18.1657 0.463735 19.1184 0.290979 19.3401C0.07165 19.6215 0 19.8163 0 20.1308C0 20.8785 0.290879 21.1848 2.44197 22.7023C3.51553 23.4598 4.98426 24.4958 5.70583 25.0045C6.42731 25.5133 8.15149 26.7342 9.53742 27.7177C10.9232 28.7011 12.2069 29.5879 12.39 29.6884C13.1492 30.1048 14.9089 30.1036 15.6734 29.6864C15.937 29.5425 17.6486 28.3385 25.627 22.6847C27.8856 21.0841 28.1203 20.828 28.0399 20.0507C28.0098 19.7593 27.9027 19.4904 27.7357 19.2869C27.594 19.1142 26.2239 18.0851 24.691 16.9998C23.1581 15.9146 21.926 14.9934 21.9531 14.9528C21.98 14.9122 22.9292 14.225 24.0623 13.4259C25.1953 12.6267 26.1448 11.9495 26.1722 11.9211C26.1995 11.8927 26.521 11.6612 26.8865 11.4068C27.714 10.8308 28.0629 10.3577 28.0629 9.8112C28.0629 9.3313 27.8974 9.01023 27.4494 8.6208C26.9277 8.16718 15.9056 0.397631 15.5206 0.211981C15.0046 -0.0367549 13.4436 -0.0756971 12.7853 0.143716ZM120.231 0.633416C119.359 0.799826 118.63 1.42282 118.376 2.21842C118.185 2.81654 118.184 3.0661 118.369 3.64303C118.694 4.65629 119.62 5.25459 120.86 5.25256C121.321 5.25182 121.692 5.19409 121.958 5.0818C122.494 4.85545 123.141 4.15734 123.298 3.63545C123.45 3.13187 123.383 2.25404 123.162 1.85776C122.648 0.933028 121.397 0.410766 120.231 0.633416ZM39.2749 1.24716C39.2383 1.28102 39.2085 7.27509 39.2085 14.5673V27.8258H41.2983H43.3881V14.5056V1.18546H41.3647C40.2517 1.18546 39.3113 1.21321 39.2749 1.24716ZM110.237 6.26655L110.212 11.3476L109.764 10.8259C108.813 9.71861 107.163 8.77935 105.584 8.44662C103.826 8.07615 101.689 8.17828 99.9958 8.71367C98.6835 9.12845 97.6577 9.69687 96.6675 10.5581C94.3918 12.5372 93.3161 15.2954 93.472 18.7515C93.5032 19.4433 93.6001 20.3216 93.6873 20.7032C94.466 24.1114 96.6081 26.5022 99.7864 27.5105C101.116 27.9324 101.977 28.0387 103.638 27.9865C105.271 27.935 105.873 27.8043 107.127 27.2284C108.172 26.7483 109.036 26.1147 109.712 25.3312C109.977 25.0238 110.216 24.7929 110.243 24.8181C110.271 24.8434 110.412 25.52 110.558 26.3218L110.823 27.7796L112.632 27.8048L114.441 27.83V14.5078V1.18546H112.352H110.263L110.237 6.26655ZM55.7278 8.2755C53.0065 8.6554 51.2518 9.4621 49.6409 11.0738C48.4955 12.2199 47.7315 13.5881 47.2592 15.3392C47.0454 16.1315 47.0228 16.4103 47.027 18.2057C47.0314 20.0774 47.0476 20.2489 47.3035 21.1195C48.3862 24.8037 51.3062 27.2357 55.4136 27.8741C56.8345 28.095 59.4035 28.0271 60.5542 27.7383C63.4863 27.0024 65.7471 25.0633 66.6693 22.4933C66.8363 22.0279 66.9729 21.6013 66.9729 21.5452C66.9729 21.4741 66.3416 21.4432 64.8909 21.4432H62.8087L62.688 21.7901C62.4789 22.3909 62.2214 22.7902 61.7021 23.3184C61.0563 23.9752 60.3982 24.3641 59.4341 24.6587C58.7701 24.8617 58.4844 24.8945 57.3698 24.8962C56.2187 24.8978 55.9895 24.8703 55.2908 24.6469C53.4929 24.072 52.2918 22.8961 51.6875 21.1195C51.5491 20.7125 51.4097 20.0361 51.3778 19.6163L51.3196 18.8532H59.2894H67.2592L67.3293 18.4189C67.4512 17.6633 67.3005 15.9191 67.0272 14.9219C66.7601 13.9474 66.199 12.7566 65.6704 12.0425C64.5271 10.4978 62.6853 9.26979 60.6178 8.67362C59.3451 8.30667 56.9193 8.10918 55.7278 8.2755ZM80.2121 8.31768C78.3876 8.57705 76.4404 9.55784 75.433 10.7247L75.0862 11.1265L75.0158 10.7579C74.9771 10.5552 74.9425 10.1604 74.9389 9.88058C74.9352 9.60076 74.9039 9.15241 74.8693 8.88424L74.8063 8.39676L72.855 8.42174L70.9037 8.44681L70.8783 18.1363L70.853 27.8258H72.9432H75.0335L75.0343 22.7614C75.0351 17.7395 75.0882 16.6404 75.3819 15.5694C75.7982 14.0511 76.9615 12.6317 78.2585 12.0598C79.1344 11.6735 79.7804 11.5456 80.8551 11.5456C83.0151 11.5456 84.451 12.3065 85.2805 13.8907C86.0026 15.2702 86.0061 15.3063 86.0525 21.9289L86.0939 27.8258H88.1821H90.2704L90.2293 21.4663C90.1848 14.5838 90.1823 14.5494 89.6128 12.9716C89.1874 11.7933 88.7957 11.2 87.8723 10.3353C87.1661 9.67393 86.8666 9.46913 86.0793 9.10875C84.7473 8.49916 83.8344 8.29927 82.1985 8.25921C81.4596 8.24108 80.5658 8.26735 80.2121 8.31768ZM132.951 8.34885C131.117 8.70396 129.721 9.36072 128.62 10.3863C127.717 11.227 127.26 11.9757 127.027 12.9991C126.392 15.7859 127.79 17.8868 130.861 18.7605C132.105 19.1143 132.98 19.2733 135.449 19.5942C137.706 19.8873 138.665 20.0696 139.149 20.2974C140.142 20.7638 140.509 21.2986 140.509 22.2757C140.509 23.0305 140.292 23.4925 139.697 24C138.841 24.7308 137.674 25.0474 135.837 25.0478C133.962 25.0482 132.801 24.686 131.735 23.7689C131.125 23.2439 130.716 22.6241 130.581 22.0217L130.504 21.6745L128.493 21.6494L126.482 21.6244V21.8515C126.482 22.3463 126.805 23.4585 127.13 24.0884C127.791 25.3649 128.858 26.3128 130.413 27.0034C132.026 27.7198 133.623 28.0152 135.886 28.0158C138.952 28.0166 141.316 27.2683 142.906 25.7932C144.139 24.6499 144.595 23.6132 144.593 21.9557C144.591 20.4608 144.241 19.5442 143.335 18.6612C141.978 17.339 140.408 16.8401 135.792 16.2642C134.537 16.1076 133.305 15.9329 133.056 15.8762C131.978 15.6312 131.133 15.009 131.003 14.3646C130.735 13.0376 131.445 12.0604 133.126 11.4398C133.632 11.2531 133.873 11.2287 135.239 11.2254C137.026 11.2213 137.532 11.327 138.495 11.9058C139.253 12.3613 139.867 13.0701 140.073 13.7273L140.229 14.2281H142.213H144.196V13.8678C144.196 13.3931 143.855 12.3762 143.465 11.6843C143.069 10.9829 141.954 9.94209 141.109 9.48569C140.3 9.04853 139.193 8.64874 138.225 8.4444C137.215 8.23128 133.871 8.1706 132.951 8.34885ZM118.787 8.46225C118.75 8.49611 118.72 12.8668 118.72 18.1749V27.8258H120.81H122.9V18.1132V8.40056H120.876C119.763 8.40056 118.823 8.42831 118.787 8.46225ZM58.5482 11.4038C60.7093 11.7619 62.3995 13.1942 62.9341 15.1202C63.0209 15.4329 63.0918 15.7762 63.0918 15.8833V16.0782H57.2728H51.4537L51.5099 15.7775C51.7334 14.5828 52.1576 13.7504 52.9281 12.9942C54.3746 11.5745 56.2963 11.0307 58.5482 11.4038ZM105.793 11.6942C107.742 12.2265 109.29 13.7282 109.947 15.723C110.247 16.6352 110.383 17.9997 110.272 18.9953C110.06 20.8942 109.529 22.031 108.323 23.1662C107.451 23.9876 106.753 24.3755 105.676 24.6384C104.853 24.8393 103.165 24.8388 102.359 24.6374C100.417 24.1522 98.8214 22.6827 98.1732 20.7832C97.515 18.8544 97.6143 16.5753 98.4299 14.8899C99.3267 13.037 100.872 11.8984 102.973 11.5426C103.617 11.4337 105.14 11.5155 105.793 11.6942Z" fill="#2C1E38"/>
</svg>
