<svg width="273" height="135" viewBox="0 0 273 135" fill="none" xmlns="http://www.w3.org/2000/svg">
<path d="M61.9315 92H57L57.4697 52.7799C57.4697 46.2923 65.1135 38 74.4716 38C77.0313 38 79.4266 38.4836 81.6575 39.4509C83.9119 40.4181 85.8845 41.7628 87.5753 43.4849C89.2661 45.1835 90.5929 47.1533 91.5557 49.3945C92.5186 51.6356 93 54.0419 93 56.6134C93 59.1848 92.5186 61.6029 91.5557 63.8676C90.5929 66.1324 89.2661 68.1258 87.5753 69.848C85.8845 71.5465 83.9119 72.8794 81.6575 73.8467C79.4266 74.8139 77.0313 75.2975 74.4716 75.2975C71.5597 75.2975 69.0469 74.6016 66.9334 73.2097C64.8199 71.8178 63.1526 70.0013 61.9315 67.7602V92ZM74.4364 42.8126C71.9706 42.8126 69.8219 43.4377 67.9902 44.6881C66.182 45.9148 64.7847 47.5662 63.7984 49.6422C62.8121 51.7182 62.3189 54.0419 62.3189 56.6134C62.3189 59.1376 62.8004 61.4495 63.7632 63.5491C64.7495 65.6488 66.1467 67.3237 67.955 68.5741C69.7867 69.8244 71.9471 70.4495 74.4364 70.4495C76.8786 70.4495 79.1213 69.8362 81.1644 68.6094C83.2309 67.3827 84.8865 65.7313 86.1311 63.6553C87.3757 61.5557 87.998 59.2084 87.998 56.6134C87.998 54.0891 87.3874 51.789 86.1663 49.713C84.9452 47.6134 83.3131 45.9384 81.27 44.6881C79.227 43.4377 76.9491 42.8126 74.4364 42.8126Z" fill="#90FF99"/>
<path d="M76.9315 107H72L72.4697 67.7799C72.4697 61.2923 80.1135 53 89.4716 53C92.0313 53 94.4266 53.4836 96.6575 54.4509C98.9119 55.4181 100.885 56.7628 102.575 58.4849C104.266 60.1835 105.593 62.1533 106.556 64.3945C107.519 66.6356 108 69.0419 108 71.6134C108 74.1848 107.519 76.6029 106.556 78.8676C105.593 81.1324 104.266 83.1258 102.575 84.848C100.885 86.5465 98.9119 87.8794 96.6575 88.8467C94.4266 89.8139 92.0313 90.2975 89.4716 90.2975C86.5597 90.2975 84.0469 89.6016 81.9334 88.2097C79.8199 86.8178 78.1526 85.0013 76.9315 82.7602V107ZM89.4364 57.8126C86.9706 57.8126 84.8219 58.4377 82.9902 59.6881C81.182 60.9148 79.7847 62.5662 78.7984 64.6422C77.8121 66.7182 77.3189 69.0419 77.3189 71.6134C77.3189 74.1376 77.8004 76.4495 78.7632 78.5491C79.7495 80.6488 81.1467 82.3237 82.955 83.5741C84.7867 84.8244 86.9471 85.4495 89.4364 85.4495C91.8786 85.4495 94.1213 84.8362 96.1644 83.6094C98.2309 82.3827 99.8865 80.7313 101.131 78.6553C102.376 76.5557 102.998 74.2084 102.998 71.6134C102.998 69.0891 102.387 66.789 101.166 64.713C99.9452 62.6134 98.3131 60.9384 96.27 59.6881C94.227 58.4377 91.9491 57.8126 89.4364 57.8126Z" fill="#90FF99"/>
<path d="M20.192 44.48H12.544L12.512 72H8.032L8.064 44.48H2.272V40H8.064L8.032 29.952H12.512L12.544 40H20.192V44.48ZM24.3025 72V40H28.7825V44.416C29.9132 42.7947 31.3852 41.504 33.1985 40.544C35.0118 39.584 36.9852 39.104 39.1185 39.104C40.3558 39.104 41.5505 39.264 42.7025 39.584L40.8785 44.032C39.9825 43.7547 39.1078 43.616 38.2545 43.616C36.5265 43.616 34.9372 44.0427 33.4865 44.896C32.0572 45.7493 30.9158 46.8907 30.0625 48.32C29.2092 49.7493 28.7825 51.3387 28.7825 53.088V72H24.3025ZM45.14 40H49.62V72H45.14V40ZM47.412 34.4C46.6867 34.4 46.068 34.1653 45.556 33.696C45.0653 33.2053 44.82 32.5973 44.82 31.872C44.82 31.1467 45.0653 30.5493 45.556 30.08C46.068 29.5893 46.6867 29.344 47.412 29.344C48.116 29.344 48.7133 29.5893 49.204 30.08C49.716 30.5493 49.972 31.1467 49.972 31.872C49.972 32.5973 49.7267 33.2053 49.236 33.696C48.7453 34.1653 48.1373 34.4 47.412 34.4Z" fill="white" fill-opacity="0.6"/>
<path d="M108.84 89V41H113.32V89H108.84ZM145.482 57H149.962V89H145.482L145.322 83.048C144.276 85.0747 142.815 86.7173 140.938 87.976C139.06 89.2133 136.82 89.832 134.218 89.832C131.871 89.832 129.674 89.3947 127.625 88.52C125.578 87.624 123.775 86.3973 122.217 84.84C120.66 83.2827 119.444 81.48 118.569 79.432C117.695 77.384 117.257 75.1867 117.257 72.84C117.257 70.536 117.684 68.3707 118.537 66.344C119.412 64.3173 120.607 62.536 122.122 61C123.657 59.464 125.428 58.2693 127.434 57.416C129.46 56.5413 131.626 56.104 133.93 56.104C136.596 56.104 138.922 56.744 140.906 58.024C142.89 59.2827 144.468 60.936 145.642 62.984L145.482 57ZM134.122 85.48C136.404 85.48 138.367 84.9253 140.01 83.816C141.652 82.6853 142.911 81.1707 143.786 79.272C144.682 77.3733 145.13 75.2827 145.13 73C145.13 70.6533 144.682 68.5413 143.786 66.664C142.89 64.7653 141.62 63.2613 139.978 62.152C138.335 61.0427 136.383 60.488 134.122 60.488C131.86 60.488 129.791 61.0533 127.913 62.184C126.058 63.2933 124.575 64.7973 123.465 66.696C122.377 68.5947 121.833 70.696 121.833 73C121.833 75.3253 122.399 77.4373 123.53 79.336C124.66 81.2133 126.154 82.7067 128.01 83.816C129.887 84.9253 131.924 85.48 134.122 85.48ZM182.669 69.192V89H178.189V70.088C178.189 68.3387 177.762 66.7493 176.909 65.32C176.056 63.8907 174.914 62.7493 173.485 61.896C172.056 61.0427 170.466 60.616 168.717 60.616C166.989 60.616 165.4 61.0427 163.949 61.896C162.52 62.7493 161.378 63.8907 160.525 65.32C159.672 66.7493 159.245 68.3387 159.245 70.088V89H154.765V57H159.245V61.416C160.376 59.7947 161.848 58.504 163.661 57.544C165.474 56.584 167.448 56.104 169.581 56.104C171.992 56.104 174.189 56.6907 176.173 57.864C178.157 59.0373 179.736 60.616 180.909 62.6C182.082 64.584 182.669 66.7813 182.669 69.192ZM215.381 69.192V89H210.901V70.088C210.901 68.3387 210.475 66.7493 209.621 65.32C208.768 63.8907 207.627 62.7493 206.197 61.896C204.768 61.0427 203.179 60.616 201.429 60.616C199.701 60.616 198.112 61.0427 196.661 61.896C195.232 62.7493 194.091 63.8907 193.237 65.32C192.384 66.7493 191.957 68.3387 191.957 70.088V89H187.477V57H191.957V61.416C193.088 59.7947 194.56 58.504 196.373 57.544C198.187 56.584 200.16 56.104 202.293 56.104C204.704 56.104 206.901 56.6907 208.885 57.864C210.869 59.0373 212.448 60.616 213.621 62.6C214.795 64.584 215.381 66.7813 215.381 69.192ZM233.645 89.832C230.701 89.832 228.013 89.0747 225.581 87.56C223.17 86.0453 221.24 84.0187 219.789 81.48C218.36 78.92 217.645 76.0933 217.645 73C217.645 70.6533 218.061 68.4667 218.893 66.44C219.725 64.392 220.866 62.6 222.317 61.064C223.789 59.5067 225.496 58.2907 227.437 57.416C229.378 56.5413 231.448 56.104 233.645 56.104C236.013 56.104 238.189 56.5733 240.173 57.512C242.178 58.4507 243.896 59.7627 245.325 61.448C246.776 63.1333 247.864 65.1067 248.589 67.368C249.336 69.6293 249.645 72.072 249.517 74.696H222.381C222.637 76.7227 223.277 78.536 224.301 80.136C225.346 81.736 226.669 83.0053 228.269 83.944C229.89 84.8613 231.682 85.3307 233.645 85.352C235.778 85.352 237.698 84.7973 239.405 83.688C241.133 82.5787 242.52 81.0533 243.565 79.112L248.109 80.168C246.829 83.0053 244.898 85.3307 242.317 87.144C239.736 88.936 236.845 89.832 233.645 89.832ZM222.253 71.08H245.005C244.856 69.096 244.248 67.2827 243.181 65.64C242.136 63.976 240.781 62.6533 239.117 61.672C237.453 60.6693 235.629 60.168 233.645 60.168C231.661 60.168 229.848 60.6587 228.205 61.64C226.562 62.6 225.218 63.912 224.173 65.576C223.128 67.2187 222.488 69.0533 222.253 71.08ZM253.403 89V57H257.883V61.416C259.013 59.7947 260.485 58.504 262.299 57.544C264.112 56.584 266.085 56.104 268.219 56.104C269.456 56.104 270.651 56.264 271.803 56.584L269.979 61.032C269.083 60.7547 268.208 60.616 267.355 60.616C265.627 60.616 264.037 61.0427 262.587 61.896C261.157 62.7493 260.016 63.8907 259.163 65.32C258.309 66.7493 257.883 68.3387 257.883 70.088V89H253.403Z" fill="white" fill-opacity="0.6"/>
<path d="M23.2778 96.8421C45.7344 119.065 82.2552 132.588 124.656 134.379C143.754 135.186 174.359 130.998 190.53 125.365C204.57 120.474 222.514 111.469 222.276 109.433C222.019 107.238 219.471 107.899 208.936 112.895C194.341 119.814 184.544 122.553 163.476 125.601C141.45 128.789 132.034 128.919 111.398 126.317C79.8362 122.338 52.5755 111.219 34.4802 94.9478L33.4503 94.0214C25.0801 86.4918 23.2064 84.8064 21.6938 85.0844C21.2576 85.1646 20.8514 85.4081 20.328 85.7218C20.2553 85.7654 20.1802 85.8103 20.1025 85.8564C16.3415 88.0881 17.1062 90.7333 23.2778 96.8421Z" fill="#90FF99"/>
<path fill-rule="evenodd" clip-rule="evenodd" d="M235.021 11.6819C233.369 7.3587 228.523 2.48644 224.348 0.954236C220.129 -0.594096 213.229 -0.215077 209.361 1.77825C201.174 5.99438 197.251 14.7609 199.742 23.2716C201.104 27.9261 206.883 38.2293 213.05 46.9995C215.351 50.2714 216.436 52.1362 217.604 52.1897C219.045 52.2556 220.611 49.5655 224.742 43.3604C235.196 27.6564 237.918 19.2681 235.021 11.6819ZM208.892 25.2261C205.213 20.0591 206.733 12.5535 212.124 9.26699C218.567 5.33898 227.057 9.39822 228.513 17.104C229.491 22.2761 225.048 28.4657 219.629 29.4825C216.073 30.1497 210.953 28.1204 208.892 25.2261Z" fill="white"/>
</svg>
