<svg width="273" height="133" viewBox="0 0 273 133" fill="none" xmlns="http://www.w3.org/2000/svg">
<path d="M61.9315 90H57L57.4697 50.7799C57.4697 44.2923 65.1135 36 74.4716 36C77.0313 36 79.4266 36.4836 81.6575 37.4509C83.9119 38.4181 85.8845 39.7628 87.5753 41.4849C89.2661 43.1835 90.5929 45.1533 91.5557 47.3945C92.5186 49.6356 93 52.0419 93 54.6134C93 57.1848 92.5186 59.6029 91.5557 61.8676C90.5929 64.1324 89.2661 66.1258 87.5753 67.848C85.8845 69.5465 83.9119 70.8794 81.6575 71.8467C79.4266 72.8139 77.0313 73.2975 74.4716 73.2975C71.5597 73.2975 69.0469 72.6016 66.9334 71.2097C64.8199 69.8178 63.1526 68.0013 61.9315 65.7602V90ZM74.4364 40.8126C71.9706 40.8126 69.8219 41.4377 67.9902 42.6881C66.182 43.9148 64.7847 45.5662 63.7984 47.6422C62.8121 49.7182 62.3189 52.0419 62.3189 54.6134C62.3189 57.1376 62.8004 59.4495 63.7632 61.5491C64.7495 63.6488 66.1467 65.3237 67.955 66.5741C69.7867 67.8244 71.9471 68.4495 74.4364 68.4495C76.8786 68.4495 79.1213 67.8362 81.1644 66.6094C83.2309 65.3827 84.8865 63.7313 86.1311 61.6553C87.3757 59.5557 87.998 57.2084 87.998 54.6134C87.998 52.0891 87.3874 49.789 86.1663 47.713C84.9452 45.6134 83.3131 43.9384 81.27 42.6881C79.227 41.4377 76.9491 40.8126 74.4364 40.8126Z" fill="#2C1E38"/>
<path d="M76.9315 105H72L72.4697 65.7799C72.4697 59.2923 80.1135 51 89.4716 51C92.0313 51 94.4266 51.4836 96.6575 52.4509C98.9119 53.4181 100.885 54.7628 102.575 56.4849C104.266 58.1835 105.593 60.1533 106.556 62.3945C107.519 64.6356 108 67.0419 108 69.6134C108 72.1848 107.519 74.6029 106.556 76.8676C105.593 79.1324 104.266 81.1258 102.575 82.848C100.885 84.5465 98.9119 85.8794 96.6575 86.8467C94.4266 87.8139 92.0313 88.2975 89.4716 88.2975C86.5597 88.2975 84.0469 87.6016 81.9334 86.2097C79.8199 84.8178 78.1526 83.0013 76.9315 80.7602V105ZM89.4364 55.8126C86.9706 55.8126 84.8219 56.4377 82.9902 57.6881C81.182 58.9148 79.7847 60.5662 78.7984 62.6422C77.8121 64.7182 77.3189 67.0419 77.3189 69.6134C77.3189 72.1376 77.8004 74.4495 78.7632 76.5491C79.7495 78.6488 81.1467 80.3237 82.955 81.5741C84.7867 82.8244 86.9471 83.4495 89.4364 83.4495C91.8786 83.4495 94.1213 82.8362 96.1644 81.6094C98.2309 80.3827 99.8865 78.7313 101.131 76.6553C102.376 74.5557 102.998 72.2084 102.998 69.6134C102.998 67.0891 102.387 64.789 101.166 62.713C99.9452 60.6134 98.3131 58.9384 96.27 57.6881C94.227 56.4377 91.9491 55.8126 89.4364 55.8126Z" fill="#2C1E38"/>
<path d="M20.192 42.48H12.544L12.512 70H8.032L8.064 42.48H2.272V38H8.064L8.032 27.952H12.512L12.544 38H20.192V42.48ZM24.3025 70V38H28.7825V42.416C29.9132 40.7947 31.3852 39.504 33.1985 38.544C35.0118 37.584 36.9852 37.104 39.1185 37.104C40.3558 37.104 41.5505 37.264 42.7025 37.584L40.8785 42.032C39.9825 41.7547 39.1078 41.616 38.2545 41.616C36.5265 41.616 34.9372 42.0427 33.4865 42.896C32.0572 43.7493 30.9158 44.8907 30.0625 46.32C29.2092 47.7493 28.7825 49.3387 28.7825 51.088V70H24.3025ZM45.14 38H49.62V70H45.14V38ZM47.412 32.4C46.6867 32.4 46.068 32.1653 45.556 31.696C45.0653 31.2053 44.82 30.5973 44.82 29.872C44.82 29.1467 45.0653 28.5493 45.556 28.08C46.068 27.5893 46.6867 27.344 47.412 27.344C48.116 27.344 48.7133 27.5893 49.204 28.08C49.716 28.5493 49.972 29.1467 49.972 29.872C49.972 30.5973 49.7267 31.2053 49.236 31.696C48.7453 32.1653 48.1373 32.4 47.412 32.4Z" fill="#2C1E38" fill-opacity="0.75"/>
<path d="M108.84 87V39H113.32V87H108.84ZM145.482 55H149.962V87H145.482L145.322 81.048C144.276 83.0747 142.815 84.7173 140.938 85.976C139.06 87.2133 136.82 87.832 134.218 87.832C131.871 87.832 129.674 87.3947 127.625 86.52C125.578 85.624 123.775 84.3973 122.217 82.84C120.66 81.2827 119.444 79.48 118.569 77.432C117.695 75.384 117.257 73.1867 117.257 70.84C117.257 68.536 117.684 66.3707 118.537 64.344C119.412 62.3173 120.607 60.536 122.122 59C123.657 57.464 125.428 56.2693 127.434 55.416C129.46 54.5413 131.626 54.104 133.93 54.104C136.596 54.104 138.922 54.744 140.906 56.024C142.89 57.2827 144.468 58.936 145.642 60.984L145.482 55ZM134.122 83.48C136.404 83.48 138.367 82.9253 140.01 81.816C141.652 80.6853 142.911 79.1707 143.786 77.272C144.682 75.3733 145.13 73.2827 145.13 71C145.13 68.6533 144.682 66.5413 143.786 64.664C142.89 62.7653 141.62 61.2613 139.978 60.152C138.335 59.0427 136.383 58.488 134.122 58.488C131.86 58.488 129.791 59.0533 127.913 60.184C126.058 61.2933 124.575 62.7973 123.465 64.696C122.377 66.5947 121.833 68.696 121.833 71C121.833 73.3253 122.399 75.4373 123.53 77.336C124.66 79.2133 126.154 80.7067 128.01 81.816C129.887 82.9253 131.924 83.48 134.122 83.48ZM182.669 67.192V87H178.189V68.088C178.189 66.3387 177.762 64.7493 176.909 63.32C176.056 61.8907 174.914 60.7493 173.485 59.896C172.056 59.0427 170.466 58.616 168.717 58.616C166.989 58.616 165.4 59.0427 163.949 59.896C162.52 60.7493 161.378 61.8907 160.525 63.32C159.672 64.7493 159.245 66.3387 159.245 68.088V87H154.765V55H159.245V59.416C160.376 57.7947 161.848 56.504 163.661 55.544C165.474 54.584 167.448 54.104 169.581 54.104C171.992 54.104 174.189 54.6907 176.173 55.864C178.157 57.0373 179.736 58.616 180.909 60.6C182.082 62.584 182.669 64.7813 182.669 67.192ZM215.381 67.192V87H210.901V68.088C210.901 66.3387 210.475 64.7493 209.621 63.32C208.768 61.8907 207.627 60.7493 206.197 59.896C204.768 59.0427 203.179 58.616 201.429 58.616C199.701 58.616 198.112 59.0427 196.661 59.896C195.232 60.7493 194.091 61.8907 193.237 63.32C192.384 64.7493 191.957 66.3387 191.957 68.088V87H187.477V55H191.957V59.416C193.088 57.7947 194.56 56.504 196.373 55.544C198.187 54.584 200.16 54.104 202.293 54.104C204.704 54.104 206.901 54.6907 208.885 55.864C210.869 57.0373 212.448 58.616 213.621 60.6C214.795 62.584 215.381 64.7813 215.381 67.192ZM233.645 87.832C230.701 87.832 228.013 87.0747 225.581 85.56C223.17 84.0453 221.24 82.0187 219.789 79.48C218.36 76.92 217.645 74.0933 217.645 71C217.645 68.6533 218.061 66.4667 218.893 64.44C219.725 62.392 220.866 60.6 222.317 59.064C223.789 57.5067 225.496 56.2907 227.437 55.416C229.378 54.5413 231.448 54.104 233.645 54.104C236.013 54.104 238.189 54.5733 240.173 55.512C242.178 56.4507 243.896 57.7627 245.325 59.448C246.776 61.1333 247.864 63.1067 248.589 65.368C249.336 67.6293 249.645 70.072 249.517 72.696H222.381C222.637 74.7227 223.277 76.536 224.301 78.136C225.346 79.736 226.669 81.0053 228.269 81.944C229.89 82.8613 231.682 83.3307 233.645 83.352C235.778 83.352 237.698 82.7973 239.405 81.688C241.133 80.5787 242.52 79.0533 243.565 77.112L248.109 78.168C246.829 81.0053 244.898 83.3307 242.317 85.144C239.736 86.936 236.845 87.832 233.645 87.832ZM222.253 69.08H245.005C244.856 67.096 244.248 65.2827 243.181 63.64C242.136 61.976 240.781 60.6533 239.117 59.672C237.453 58.6693 235.629 58.168 233.645 58.168C231.661 58.168 229.848 58.6587 228.205 59.64C226.562 60.6 225.218 61.912 224.173 63.576C223.128 65.2187 222.488 67.0533 222.253 69.08ZM253.403 87V55H257.883V59.416C259.013 57.7947 260.485 56.504 262.299 55.544C264.112 54.584 266.085 54.104 268.219 54.104C269.456 54.104 270.651 54.264 271.803 54.584L269.979 59.032C269.083 58.7547 268.208 58.616 267.355 58.616C265.627 58.616 264.037 59.0427 262.587 59.896C261.157 60.7493 260.016 61.8907 259.163 63.32C258.309 64.7493 257.883 66.3387 257.883 68.088V87H253.403Z" fill="#2C1E38" fill-opacity="0.75"/>
<path d="M23.2778 94.8421C45.7344 117.065 82.2552 130.588 124.656 132.379C143.754 133.186 174.359 128.998 190.53 123.365C204.57 118.474 222.514 109.469 222.276 107.433C222.019 105.238 219.471 105.899 208.936 110.895C194.341 117.814 184.544 120.553 163.476 123.601C141.45 126.789 132.034 126.919 111.398 124.317C79.8362 120.338 52.5755 109.219 34.4802 92.9478L33.4503 92.0214C25.0801 84.4918 23.2064 82.8064 21.6938 83.0844C21.2576 83.1646 20.8514 83.4081 20.328 83.7218C20.2553 83.7654 20.1802 83.8103 20.1025 83.8564C16.3415 86.0881 17.1062 88.7333 23.2778 94.8421Z" fill="#90FF99"/>
<path fill-rule="evenodd" clip-rule="evenodd" d="M235.021 11.6819C233.369 7.3587 228.523 2.48644 224.348 0.954236C220.129 -0.594096 213.229 -0.215077 209.361 1.77825C201.174 5.99438 197.251 14.7609 199.742 23.2716C201.104 27.9261 206.883 38.2293 213.05 46.9995C215.351 50.2714 216.436 52.1362 217.604 52.1897C219.045 52.2556 220.611 49.5655 224.742 43.3604C235.196 27.6564 237.918 19.2681 235.021 11.6819ZM208.892 25.2261C205.213 20.0591 206.733 12.5535 212.124 9.26699C218.567 5.33898 227.057 9.39822 228.513 17.104C229.491 22.2761 225.048 28.4657 219.629 29.4825C216.073 30.1497 210.953 28.1204 208.892 25.2261Z" fill="#2C1E38"/>
</svg>
